2.5Hzlow3min_grf.mot
version=1
nRows=15
nColumns 19
inDegrees=yes
endheader
time	1_ground_force_vx	1_ground_force_vy	1_ground_force_vz	1_ground_force_px	1_ground_force_py	1_ground_force_pz	1_ground_torque_x	1_ground_torque_y	1_ground_torque_z	2_ground_force_vx	2_ground_force_vy	2_ground_force_vz	2_ground_force_px	2_ground_force_py	2_ground_force_pz	2_ground_torque_x	2_ground_torque_y	2_ground_torque_z
            1.253500	            0.183822	            2.522182	            0.377214	           -0.233013	            0.005581	           -0.255695	            0.170404	           -0.119872	           -0.030804	            0.795695	            0.366486	            1.314962	           -0.232311	            0.006130	           -0.833667	           -0.300161	           -0.142002	           -0.245431
            1.254000	            0.229536	            1.981787	            0.283069	           -0.233013	            0.005581	           -0.255695	            0.174868	           -0.194123	            0.046033	            0.700542	            0.735449	            1.034748	           -0.232311	            0.006130	           -0.833667	           -0.187476	           -0.123026	           -0.151160
            1.254500	            0.366883	            3.604008	            0.335540	           -0.233013	            0.005581	           -0.255695	            0.096927	           -0.148098	            0.108625	            0.422560	           -0.184634	            0.562301	           -0.232311	            0.006130	           -0.833667	           -0.262685	           -0.113575	           -0.226495
            1.255000	            0.137083	            3.064346	            0.058655	           -0.233013	            0.005581	           -0.255695	            0.089822	           -0.064379	           -0.051138	            0.421608	            0.001857	           -0.094036	           -0.232311	            0.006130	           -0.833667	           -0.149870	           -0.141526	           -0.226644
            1.255500	            0.045445	            3.424663	            0.106284	           -0.233013	            0.005581	           -0.255695	            0.125057	            0.037426	           -0.092308	            0.372579	            0.555639	           -0.514397	           -0.232311	            0.006130	           -0.833667	           -0.187509	           -0.122757	           -0.226561
            1.256000	            0.137655	            1.801897	            0.190812	           -0.233013	            0.005581	           -0.255695	            0.216206	            0.000273	           -0.032332	            0.560787	            0.370996	           -0.186637	           -0.232311	            0.006130	           -0.833667	           -0.300332	           -0.094738	           -0.245262
            1.256500	            0.229015	            2.343105	            0.101191	           -0.233013	            0.005581	           -0.255695	            0.107107	           -0.036602	           -0.047127	            0.978634	            1.475902	            0.239479	           -0.232311	            0.006130	           -0.833667	           -0.300221	           -0.123164	           -0.226513
            1.257000	           -0.000185	            2.883661	            0.149935	           -0.233013	            0.005581	           -0.255695	            0.180172	           -0.166583	            0.055130	            0.934689	            0.737131	            0.800007	           -0.232311	            0.006130	           -0.833667	           -0.149751	           -0.170019	           -0.189045
            1.257500	            0.275427	            2.342131	            0.330357	           -0.233013	            0.005581	           -0.255695	            0.135006	           -0.221597	           -0.008438	            0.700542	            0.735449	            1.034748	           -0.232311	            0.006130	           -0.833667	           -0.187528	           -0.104255	           -0.113392
            1.258000	            0.137572	            2.883294	            0.241306	           -0.233013	            0.005581	           -0.255695	            0.194768	           -0.166030	           -0.051828	            0.657016	           -0.185462	            1.031482	           -0.232311	            0.006130	           -0.833667	           -0.131266	           -0.075760	           -0.094465
            1.258500	            0.183432	            2.162437	            0.192244	           -0.233013	            0.005581	           -0.255695	           -0.009318	           -0.073616	           -0.048945	            0.609337	           -0.000144	            0.656734	           -0.232311	            0.006130	           -0.833667	           -0.168998	           -0.037883	           -0.150865
            1.259000	            0.183579	            1.981975	            0.237327	           -0.233013	            0.005581	           -0.255695	            0.195640	            0.046025	            0.082652	            0.233585	            0.184994	            0.000557	           -0.232311	            0.006130	           -0.833667	           -0.168964	           -0.047336	           -0.150898
            1.259500	            0.366933	            2.702876	            0.285820	           -0.233013	            0.005581	           -0.255695	            0.192977	           -0.045840	           -0.022730	            0.376731	           -0.550590	           -0.142915	           -0.232311	            0.006130	           -0.833667	           -0.187577	           -0.103851	           -0.226494
            1.260000	            0.045089	            2.884653	           -0.079458	           -0.233013	            0.005581	           -0.255695	            0.152113	           -0.082901	           -0.055275	            0.561431	            0.187015	           -0.234223	           -0.232311	            0.006130	           -0.833667	           -0.281401	           -0.141732	           -0.301989
            1.260500	            0.091405	            2.163009	            0.054904	           -0.233013	            0.005581	           -0.255695	            0.052729	           -0.156600	           -0.109758	            0.983992	            0.002381	            0.328078	           -0.232311	            0.006130	           -0.833667	           -0.206193	           -0.141999	           -0.151220
